<svg width="28" height="25" viewBox="0 0 28 25" fill="none" xmlns="http://www.w3.org/2000/svg">
<path fill-rule="evenodd" clip-rule="evenodd" d="M20.2129 1.13173C20.7033 1.40999 21.0011 1.9925 21.0011 2.67317C21.0011 3.3517 20.7237 3.89829 20.226 4.20054L19.9431 4.37233L10.5047 4.37233L1.06623 4.37232L0.783358 4.20054C0.285591 3.89829 0.00819228 3.3517 0.00819222 2.67317C0.00819215 1.97365 0.288981 1.42645 0.798668 1.1328L1.07208 0.975341L10.5047 0.975341L19.9372 0.975341L20.2129 1.13173ZM26.9642 11.2309C27.3896 11.3895 27.8244 11.8913 27.9385 12.3555C28.0205 12.689 28.0205 13.1139 27.9385 13.4474C27.8571 13.7785 27.51 14.2624 27.2169 14.4535L26.9912 14.6006L14.0043 14.6006L1.0174 14.6006L0.791671 14.4535C-0.0383956 13.9124 -0.251655 12.6284 0.350171 11.7952C0.468831 11.631 0.667489 11.4304 0.791671 11.3494L1.0174 11.2023L13.9223 11.1911C21.0199 11.1849 26.8888 11.2028 26.9642 11.2309ZM14.4847 21.5143C14.7293 21.6098 15.1315 22.0538 15.2763 22.3882C15.443 22.7731 15.4429 23.4865 15.2761 23.8716C15.1192 24.2339 14.8519 24.5535 14.5796 24.7042C14.3705 24.8199 14.0327 24.826 7.7159 24.8267L1.07208 24.8275L0.79867 24.6701C-0.25909 24.0607 -0.268167 22.2408 0.78336 21.6023L1.06623 21.4305L7.68561 21.4373C12.1538 21.4419 14.3634 21.4669 14.4847 21.5143Z" fill="#0078D4"/>
</svg>
