<svg width="10" height="21" viewBox="0 0 10 21" fill="none" xmlns="http://www.w3.org/2000/svg">
<path d="M9.06598 0H7.98364C4.97536 0 2.52798 2.47605 2.52798 5.51947V7.84886H0.678812C0.488398 7.84886 0.333984 8.00507 0.333984 8.19771V10.9886C0.333984 11.1812 0.488398 11.3374 0.678812 11.3374H2.52785V19.8848C2.52785 20.0775 2.68226 20.2337 2.87267 20.2337H5.63129C5.82171 20.2337 5.97612 20.0775 5.97612 19.8848V11.3374H8.71998C8.9104 11.3374 9.06481 11.1812 9.06481 10.9886V8.19771C9.06481 8.00507 8.9104 7.84886 8.71998 7.84886H5.97612V5.51947C5.97612 4.39964 6.87667 3.48857 7.9835 3.48857H9.06584C9.25626 3.48857 9.41067 3.33235 9.41067 3.13971V0.348857C9.41081 0.156218 9.2564 0 9.06598 0Z" fill="#242424"/>
</svg>
