<svg width="9" height="17" viewBox="0 0 9 17" fill="none" xmlns="http://www.w3.org/2000/svg">
<path d="M8.04455 0.157837H7.16159C4.70747 0.157837 2.71092 2.17777 2.71092 4.66056V6.56085H1.20239C1.04705 6.56085 0.921082 6.68829 0.921082 6.84545V9.12219C0.921082 9.27935 1.04705 9.40679 1.20239 9.40679H2.71081V16.3797C2.71081 16.5368 2.83678 16.6643 2.99212 16.6643H5.24257C5.39791 16.6643 5.52388 16.5368 5.52388 16.3797V9.40679H7.76229C7.91763 9.40679 8.0436 9.27935 8.0436 9.12219V6.84545C8.0436 6.68829 7.91763 6.56085 7.76229 6.56085H5.52388V4.66056C5.52388 3.74702 6.25854 3.00377 7.16148 3.00377H8.04444C8.19978 3.00377 8.32575 2.87633 8.32575 2.71918V0.44243C8.32586 0.285278 8.19989 0.157837 8.04455 0.157837Z" fill="white"/>
</svg>
