<svg width="10" height="20" viewBox="0 0 10 20" fill="none" xmlns="http://www.w3.org/2000/svg">
<path d="M9.06501 0H7.98266C4.97439 0 2.52701 2.44745 2.52701 5.45572V7.75821H0.677835C0.487422 7.75821 0.333008 7.91262 0.333008 8.10303V10.8617C0.333008 11.0521 0.487422 11.2065 0.677835 11.2065H2.52687V19.6552C2.52687 19.8456 2.68128 20 2.8717 20H5.63032C5.82073 20 5.97514 19.8456 5.97514 19.6552V11.2065H8.71901C8.90942 11.2065 9.06383 11.0521 9.06383 10.8617V8.10303C9.06383 7.91262 8.90942 7.75821 8.71901 7.75821H5.97514V5.45572C5.97514 4.34883 6.8757 3.44828 7.98252 3.44828H9.06487C9.25528 3.44828 9.4097 3.29386 9.4097 3.10345V0.344828C9.40983 0.154414 9.25542 0 9.06501 0Z" fill="white"/>
</svg>
