<svg width="20" height="21" viewBox="0 0 20 21" fill="none" xmlns="http://www.w3.org/2000/svg">
<path d="M13.75 0H6.25C2.79875 0 0 2.83145 0 6.32303V13.9107C0 17.4022 2.79875 20.2337 6.25 20.2337H13.75C17.2013 20.2337 20 17.4022 20 13.9107V6.32303C20 2.83145 17.2013 0 13.75 0ZM18.125 13.9107C18.125 16.3513 16.1625 18.3368 13.75 18.3368H6.25C3.8375 18.3368 1.875 16.3513 1.875 13.9107V6.32303C1.875 3.88234 3.8375 1.89691 6.25 1.89691H13.75C16.1625 1.89691 18.125 3.88234 18.125 6.32303V13.9107Z" fill="#242424"/>
<path d="M10 5.05842C7.23875 5.05842 5 7.32333 5 10.1168C5 12.9104 7.23875 15.1753 10 15.1753C12.7612 15.1753 15 12.9104 15 10.1168C15 7.32333 12.7612 5.05842 10 5.05842ZM10 13.2784C8.2775 13.2784 6.875 11.8595 6.875 10.1168C6.875 8.37295 8.2775 6.95533 10 6.95533C11.7225 6.95533 13.125 8.37295 13.125 10.1168C13.125 11.8595 11.7225 13.2784 10 13.2784Z" fill="#242424"/>
<path d="M15.375 5.35304C15.743 5.35304 16.0413 5.05127 16.0413 4.67901C16.0413 4.30676 15.743 4.00498 15.375 4.00498C15.0071 4.00498 14.7088 4.30676 14.7088 4.67901C14.7088 5.05127 15.0071 5.35304 15.375 5.35304Z" fill="#242424"/>
</svg>
