<svg width="18" height="15" viewBox="0 0 18 15" fill="none" xmlns="http://www.w3.org/2000/svg">
<path fill-rule="evenodd" clip-rule="evenodd" d="M15.9165 0.804527C15.8864 0.816883 15.4186 0.998371 14.8769 1.2078C10.8526 2.76372 1.06797 6.58766 0.979552 6.63901C0.919439 6.67393 0.831823 6.76005 0.784805 6.83037C0.714552 6.93553 0.70215 6.99331 0.714953 7.15572C0.744134 7.52545 0.715464 7.51087 2.87103 8.25411C3.91137 8.61282 4.78498 8.90633 4.81237 8.90633C4.83973 8.90633 6.85282 7.66761 9.2859 6.15358C11.719 4.63956 13.7548 3.39367 13.81 3.38492C13.8962 3.37126 13.9103 3.38172 13.9103 3.4592C13.9103 3.53045 13.595 3.84444 12.4064 4.95693C7.85628 9.21573 7.1431 9.89025 7.13427 9.94309C7.12894 9.97493 7.06828 10.7941 6.99942 11.7635C6.88711 13.3452 6.87988 13.5349 6.92894 13.6113C7.00613 13.7314 7.1443 13.7885 7.25555 13.7461C7.30531 13.7271 7.82148 13.2388 8.40262 12.6609C9.1084 11.9591 9.47455 11.6196 9.50534 11.6385C9.53065 11.6541 10.3895 12.3128 11.414 13.1022C12.4384 13.8916 13.3281 14.5645 13.391 14.5977C13.4539 14.6308 13.589 14.6578 13.6911 14.6578C13.9914 14.6578 14.2334 14.4966 14.343 14.2234C14.3658 14.1664 14.9848 11.3479 15.7186 7.96012C17.1866 1.18272 17.123 1.54113 16.9165 1.20131C16.7584 0.94119 16.5212 0.803005 16.2126 0.791242C16.0799 0.786159 15.9466 0.792133 15.9165 0.804527Z" fill="white"/>
</svg>
