<svg width="25" height="19" viewBox="0 0 25 19" fill="none" xmlns="http://www.w3.org/2000/svg">
<path d="M3.50694 2.39333L3.23611 2.13333C2.96528 1.87333 2.52778 1.88 2.26389 2.13333L2.25694 2.14C1.98611 2.4 1.98611 2.82 2.25694 3.07333L2.52778 3.33333C2.79861 3.59333 3.22917 3.59333 3.5 3.33333L3.50694 3.32667C3.77778 3.07333 3.77778 2.64667 3.50694 2.39333Z" fill="#C4C9D2"/>
<path d="M1.39583 6.63333H0.6875C0.305556 6.63333 0 6.92667 0 7.29333V7.3C0 7.66667 0.305556 7.96 0.6875 7.96H1.38889C1.77778 7.96667 2.08333 7.67333 2.08333 7.30667V7.3C2.08333 6.92667 1.77778 6.63333 1.39583 6.63333Z" fill="#C4C9D2"/>
<path d="M7.64583 0H7.63889C7.25 0 6.94444 0.293333 6.94444 0.66V1.3C6.94444 1.66667 7.25 1.96 7.63194 1.96H7.63889C8.02778 1.96667 8.33333 1.67333 8.33333 1.30667V0.66C8.33333 0.293333 8.02778 0 7.64583 0Z" fill="#C4C9D2"/>
<path d="M13.0208 2.14C12.75 1.88 12.3125 1.88 12.0417 2.13333L11.7708 2.39333C11.5 2.65333 11.5 3.07333 11.7708 3.32667L11.7778 3.33333C12.0486 3.59333 12.4861 3.59333 12.75 3.33333L13.0208 3.07333C13.2917 2.81333 13.2917 2.4 13.0208 2.14Z" fill="#C4C9D2"/>
<path d="M7.63889 3.3C5.34028 3.3 3.47222 5.09333 3.47222 7.3C3.47222 8.73036 4.25711 9.98706 5.43539 10.6942C5.9992 9.12627 7.55009 8 9.375 8C9.44682 8 9.51821 8.00175 9.58913 8.00519C9.88995 6.98028 10.4924 6.07673 11.2987 5.38847C10.5916 4.14492 9.21665 3.3 7.63889 3.3Z" fill="#C4C9D2"/>
<path d="M2.25694 12.46C2.52778 12.72 2.96528 12.72 3.23611 12.46L3.50694 12.2C3.77778 11.94 3.77083 11.52 3.50694 11.2667L3.5 11.26C3.22917 11 2.79167 11 2.52083 11.26L2.25 11.52C1.98611 11.7867 1.98611 12.2 2.25694 12.46Z" fill="#C4C9D2"/>
<path d="M7.29167 19H20.8333C23.1345 19 25 17.2091 25 15C25 13.1238 23.6545 11.5494 21.8393 11.1174C21.8629 10.9147 21.875 10.7087 21.875 10.5C21.875 7.46243 19.31 5 16.1458 5C13.5214 5 11.3091 6.69403 10.6308 9.00519C10.5599 9.00175 10.4885 9 10.4167 9C8.11548 9 6.25 10.7909 6.25 13C6.25 13.0568 6.25123 13.1133 6.25367 13.1695C5.03801 13.5803 4.16667 14.6925 4.16667 16C4.16667 17.6569 5.56578 19 7.29167 19Z" fill="#C4C9D2"/>
</svg>
