<svg width="22" height="22" viewBox="0 0 22 22" fill="none" xmlns="http://www.w3.org/2000/svg">
<path d="M10.8 0C4.8357 0 0 4.8357 0 10.8C0 12.8261 0.569107 14.7151 1.53984 16.3354L0.0966797 21.6L5.47383 20.1885C7.04642 21.0826 8.86184 21.6 10.8 21.6C16.7643 21.6 21.6 16.7643 21.6 10.8C21.6 4.8357 16.7643 0 10.8 0ZM7.10332 5.76211C7.27882 5.76211 7.45914 5.76104 7.61484 5.76914C7.80745 5.77364 8.01707 5.78775 8.21777 6.23145C8.45627 6.75885 8.97559 8.08192 9.04219 8.21602C9.10879 8.35012 9.15598 8.50809 9.06328 8.68359C8.97508 8.86359 8.92921 8.97254 8.79961 9.13184C8.66551 9.28664 8.51857 9.4789 8.39707 9.5959C8.26297 9.73 8.1245 9.87704 8.2793 10.1443C8.4341 10.4116 8.97171 11.2879 9.76641 11.9953C10.7879 12.9079 11.6498 13.1884 11.918 13.3225C12.1862 13.4566 12.3415 13.4357 12.4963 13.2557C12.6556 13.0802 13.1653 12.478 13.3453 12.2098C13.5208 11.9416 13.7 11.988 13.943 12.0762C14.1896 12.1644 15.5047 12.8122 15.7729 12.9463C16.0411 13.0804 16.2169 13.1468 16.2844 13.2557C16.3537 13.3682 16.3537 13.9037 16.1314 14.5283C15.9091 15.152 14.8175 15.7552 14.3279 15.7975C13.8338 15.8434 13.3727 16.0196 11.1164 15.1313C8.39481 14.0594 6.67844 11.2718 6.54434 11.0918C6.41024 10.9163 5.45449 9.64252 5.45449 8.32852C5.45449 7.01002 6.14579 6.36429 6.38789 6.09609C6.63449 5.82789 6.92332 5.76211 7.10332 5.76211Z" fill="#242424"/>
</svg>
