<svg width="18" height="18" viewBox="0 0 18 18" fill="none" xmlns="http://www.w3.org/2000/svg">
<path d="M8.96842 0.342163C4.10281 0.342163 0.157898 4.28708 0.157898 9.15269C0.157898 10.8056 0.62217 12.3466 1.41409 13.6684L0.236768 17.9632L4.62339 16.8117C5.90629 17.5411 7.38729 17.9632 8.96842 17.9632C13.834 17.9632 17.779 14.0183 17.779 9.15269C17.779 4.28708 13.834 0.342163 8.96842 0.342163ZM5.95271 5.04283C6.09588 5.04283 6.24299 5.04196 6.37001 5.04857C6.52713 5.05224 6.69814 5.06375 6.86187 5.42571C7.05644 5.85596 7.48009 6.93531 7.53442 7.0447C7.58875 7.1541 7.62725 7.28298 7.55163 7.42615C7.47967 7.57299 7.44225 7.66186 7.33653 7.79182C7.22713 7.9181 7.10726 8.07495 7.00814 8.1704C6.89874 8.27979 6.78578 8.39974 6.91206 8.61781C7.03835 8.83587 7.47692 9.55072 8.12523 10.1278C8.95856 10.8723 9.66166 11.1011 9.88045 11.2105C10.0992 11.3199 10.226 11.3028 10.3522 11.156C10.4822 11.0128 10.898 10.5216 11.0449 10.3028C11.188 10.084 11.3342 10.1218 11.5324 10.1938C11.7336 10.2657 12.8064 10.7942 13.0252 10.9036C13.244 11.013 13.3875 11.0672 13.4425 11.156C13.4991 11.2478 13.4991 11.6847 13.3178 12.1942C13.1364 12.703 12.2459 13.1951 11.8465 13.2296C11.4434 13.267 11.0672 13.4107 9.22654 12.6861C7.00629 11.8116 5.6061 9.53758 5.4967 9.39073C5.3873 9.24756 4.60762 8.20843 4.60762 7.13648C4.60762 6.06086 5.17157 5.53409 5.36907 5.31529C5.57025 5.0965 5.80587 5.04283 5.95271 5.04283Z" fill="white"/>
</svg>
