<svg width="24" height="16" viewBox="0 0 24 16" fill="none" xmlns="http://www.w3.org/2000/svg">
<path d="M23 5.80005C23.0495 4.35198 22.7365 2.91474 22.09 1.62179C21.6514 1.09127 21.0427 0.733242 20.37 0.61011C17.5875 0.354685 14.7936 0.249995 12 0.296488C9.21667 0.247885 6.43274 0.349197 3.66003 0.599993C3.11185 0.700875 2.60454 0.961005 2.20003 1.34864C1.30003 2.18834 1.20003 3.62493 1.10003 4.83895C0.954939 7.02172 0.954939 9.21189 1.10003 11.3947C1.12896 12.078 1.22952 12.7562 1.40003 13.418C1.5206 13.929 1.76455 14.4017 2.11003 14.7939C2.51729 15.2021 3.03641 15.477 3.60003 15.583C5.75594 15.8523 7.92824 15.9638 10.1 15.9169C13.6 15.9675 16.67 15.9169 20.3 15.6336C20.8775 15.5341 21.4112 15.2588 21.83 14.8445C22.11 14.5612 22.3191 14.2143 22.44 13.8328C22.7977 12.7226 22.9733 11.5607 22.96 10.3931C23 9.82655 23 6.40706 23 5.80005ZM9.74003 11.0001V4.73778L15.66 7.88412C14 8.81487 11.81 9.86702 9.74003 11.0001Z" fill="#242424"/>
</svg>
